# xmcd CD database file
#
# Track frame offsets:
#	150
#	36653
#	61685
#	78346
#	99005
#	117808
#	142057
#	166218
#	188087
#
# Disc length: 2956 seconds
#
# Revision: 1
# Processed by: cddbd v1.5.2PL0 Copyright (c) Steve Scherf et al.
# Submitted via: CDex 1.70beta2
#
DISCID=6d0b8a09
DTITLE=Gerry Mulligan - Midnite Collection
DYEAR=2000
DGENRE=Jazz
TTITLE0=rose room
TTITLE1=out of nowhere
TTITLE2=come out wherever you are
TTITLE3=yardbird suite
TTITLE4=lullaby of the leaves
TTITLE5=borbels,bangles and beads
TTITLE6=my funny valentine
TTITLE7=birth of the blues
TTITLE8=fine and mellow(with billie holiday)
EXTD=YEAR: 2000
EXTT0=
EXTT1=
EXTT2=
EXTT3=
EXTT4=
EXTT5=
EXTT6=
EXTT7=
EXTT8=
PLAYORDER=
